<?xml version="1.0" encoding="UTF-8"?>
<svg width="60px" height="60px" viewBox="0 0 60 60" version="1.1" xmlns="http://www.w3.org/2000/svg" xmlns:xlink="http://www.w3.org/1999/xlink" xmlns:sketch="http://www.bohemiancoding.com/sketch/ns">
    <!-- Generator: Sketch 3.5.1 (25234) - http://www.bohemiancoding.com/sketch -->
    <title>social-t</title>
    <desc>Created with Sketch.</desc>
    <defs></defs>
    <g id="Welcome" stroke="none" stroke-width="1" fill="none" fill-rule="evenodd" sketch:type="MSPage">
        <g id="boquete-home" sketch:type="MSArtboardGroup" transform="translate(-1015.000000, -241.000000)">
            <g id="social-icons" sketch:type="MSLayerGroup" transform="translate(1015.000000, 241.000000)">
                <g id="social-t" sketch:type="MSShapeGroup">
                    <g id="Twitter">
                        <g id="Page-1">
                            <g id="Twitter">
                                <rect id="Rectangle-115" fill="#FD4D17" x="0" y="0" width="60" height="60" rx="10"></rect>
                                <path d="M42.6574667,17.1654222 C41.3802,15.833 39.5819778,15 37.5876889,15 C33.7143333,15 30.5734889,18.1408444 30.5734889,22.0126889 C30.5734889,22.5506444 30.6358222,23.0753778 30.7510444,23.5785778 C25.4957778,23.4406889 19.7494,20.8072 16.2900889,16.2999333 C14.1632,19.9813778 16.0037333,24.0757333 18.4173556,25.5675778 C17.5911556,25.6299111 16.0702222,25.4723778 15.3543333,24.7738667 C15.3063556,27.2173333 16.4812444,30.4548889 20.7652444,31.6294 C19.9401778,32.0732889 18.4796889,31.9459778 17.8446444,31.8515333 C18.0675333,33.9142 20.9560222,36.6107778 24.1146222,36.6107778 C22.9888444,37.9129778 18.7532,40.2748444 14,39.5234444 C17.2281111,41.4875111 20.9904,42.625 24.9725556,42.625 C36.2888889,42.625 45.0771333,33.4536889 44.6041556,22.1396222 C44.6022667,22.072 44.6041556,22.0429111 44.6041556,22.0126889 C44.6041556,21.9775556 44.6011333,21.9443111 44.6,21.9103111 C45.6302,21.2057556 47.0124889,19.9594667 48,18.3191556 C47.4272889,18.6346 45.7091556,19.2662444 44.1104,19.4230222 C45.1364444,18.8692 46.6566222,17.0554889 47.0321333,15.6131333 C46.0442444,16.2459111 43.7760667,17.1654222 42.6574667,17.1654222 Z" id="Fill-1" fill="#5D432B"></path>
                            </g>
                        </g>
                    </g>
                </g>
            </g>
        </g>
    </g>
</svg>