<?xml version="1.0" encoding="UTF-8"?>
<svg width="60px" height="60px" viewBox="0 0 60 60" version="1.1" xmlns="http://www.w3.org/2000/svg" xmlns:xlink="http://www.w3.org/1999/xlink" xmlns:sketch="http://www.bohemiancoding.com/sketch/ns">
    <!-- Generator: Sketch 3.5.1 (25234) - http://www.bohemiancoding.com/sketch -->
    <title>social-ig</title>
    <desc>Created with Sketch.</desc>
    <defs></defs>
    <g id="Welcome" stroke="none" stroke-width="1" fill="none" fill-rule="evenodd" sketch:type="MSPage">
        <g id="boquete-home" sketch:type="MSArtboardGroup" transform="translate(-1155.000000, -241.000000)">
            <g id="social-icons" sketch:type="MSLayerGroup" transform="translate(1015.000000, 241.000000)">
                <g id="social-ig" transform="translate(140.000000, 0.000000)" sketch:type="MSShapeGroup">
                    <g id="instagram-white">
                        <g id="social-icons">
                            <g id="instagram-white">
                                <rect id="Rectangle-115" fill="#FD4D17" x="0" y="0" width="60" height="60" rx="10"></rect>
                                <path d="M41.0693256,11 L18.2034016,11 C14.2324361,11 11,14.2302446 11,18.2034016 L11,41.0693256 C11,45.0424826 14.2324361,48.2727273 18.2034016,48.2727273 L41.0693256,48.2727273 C45.0402912,48.2727273 48.2727273,45.0424826 48.2727273,41.0693256 L48.2727273,18.2034016 C48.2727273,14.2302446 45.0402912,11 41.0693256,11 L41.0693256,11 L41.0693256,11 Z M43.1358932,15.2974964 L43.9598905,15.2931134 L43.9598905,21.6111563 L37.6615709,21.6308796 L37.6396563,15.3128368 L43.1358932,15.2974964 L43.1358932,15.2974964 L43.1358932,15.2974964 Z M24.3176366,25.8100358 C25.5098029,24.1576585 27.447073,23.0750664 29.6363636,23.0750664 C31.8256542,23.0750664 33.7629244,24.1576585 34.9550907,25.8100358 C35.7330668,26.8882451 36.1976609,28.2075174 36.1976609,29.6363636 C36.1976609,33.2523091 33.2545005,36.1954695 29.6363636,36.1954695 C26.0204182,36.1954695 23.0772578,33.2523091 23.0772578,29.6363636 C23.0772578,28.2075174 23.5418519,26.8882451 24.3176366,25.8100358 L24.3176366,25.8100358 L24.3176366,25.8100358 Z M44.6414415,41.0693256 C44.6414415,43.0394681 43.0394681,44.6414415 41.0693256,44.6414415 L18.2034016,44.6414415 C16.2332592,44.6414415 14.6312858,43.0394681 14.6312858,41.0693256 L14.6312858,25.8100358 L20.1976504,25.8100358 C19.7155243,26.9934362 19.4459719,28.2842192 19.4459719,29.6363636 C19.4459719,35.2553236 24.0174036,39.8289469 29.6363636,39.8289469 C35.2575153,39.8289469 39.8289469,35.2553236 39.8289469,29.6363636 C39.8289469,28.2842192 39.5550115,26.9934362 39.0772685,25.8100358 L44.6414415,25.8100358 L44.6414415,41.0693256 L44.6414415,41.0693256 L44.6414415,41.0693256 Z" id="Shape" fill="#5D432B"></path>
                            </g>
                        </g>
                    </g>
                </g>
            </g>
        </g>
    </g>
</svg>